<?xml version="1.0" encoding="UTF-8"?>
<svg id="Layer_1" xmlns="http://www.w3.org/2000/svg" version="1.1" viewBox="0 0 595.28 595.28">
  <!-- Generator: Adobe Illustrator 29.8.5, SVG Export Plug-In . SVG Version: 2.1.1 Build 2)  -->
  <defs>
    <style>
      .st0, .st1 {
        fill: #59624b;
      }

      .st1 {
        font-family: CormorantGaramond-Medium, 'Cormorant Garamond';
        font-size: 86.89px;
        font-weight: 500;
      }

      .st2 {
        fill: #f2efe7;
      }
    </style>
  </defs>
  <g>
    <path class="st0" d="M341.94,296.53c1.95,1.3,4.28,2.61,5.71,2.6s4.26.02,4.14-.42c-.02-.08,0-.12.01-.14-.16,0-.6-.03-1.68-.31-2.55-.65-5.58-1.94-7.09-2.59-1.51-.65-1.73-1.3-3.89-1.3h-7.78s-5.37.13-9.38-1.01c-4.02-1.15-6.53-1.75-9.05-2.86s-4.69-1.97-4.9-2.18-.43-.86,1.3-.86,3.65.64,5.45,1.31c1.8.67,5.36,1.28,7.09,1.71,1.73.43,3.03,0,5.19-.43,2.16-.43,3.03-.43,3.89-.86.86-.43.86,0,2.16,0s3.03-.43,1.08-1.08-3.06-.35-5.84.22c-2.77.57-5.4,1.51-8.21.43-2.81-1.08-6.92-3.03-9.51-3.03s-5.84-.22-6.92-1.3c-1.08-1.08-3.63-7.06-3.24-16.64.39-9.58,2.94-12.45,3.95-13.03,1.02-.58,3.38-1.26,7.07-.15s11.45,1.08,16.21-3.67c4.75-4.75,9.73-12.32,9.73-12.32,0,0,1.81-1.58,1.08-2.38-.73-.79-5.73-.09-8.86-.65-3.13-.56-8.43-.65-12.53,1.3-4.11,1.95-8.86,4.54-11.67,9.94-2.81,5.4-4.97,9.29-4.97,9.29,0,0-.86,2.59-.86.86s0-15.13.65-19.67c.65-4.54,1.51-9.73,3.46-10.81,1.94-1.08,2.77-1.38,7.78-1.73,5.01-.35,12.7-5.54,15.56-13.83,0,0,1.95-4.11,2.38-4.97.43-.86,1.77-2.47.22-2.81-1.56-.34-7.8-.14-12.75,1.08-4.95,1.22-8.43,4.11-9.51,6.05-1.08,1.95-3.03,6.92-3.89,9.08-.86,2.16-3.46,7.78-3.46,7.78,0,0-.39,2.84-.86,1.3-.47-1.54.22-23.99.22-23.99,0,0,1.24-5.2,2.59-6.48,1.36-1.28,7.06-1.44,9.26-5.8,2.2-4.36,3.06-8.68,3.93-10.84s1.3-4.53.22-4.42c-1.08.1-5.19,2.05-6.92,2.91-1.73.86-5.62,3.46-6.7,6.27s-1.73,7.35-2.16,9.08c-.43,1.73-1.33,6.09-1.95,5.84s-.65-7.56-1.51-10.59c-.86-3.03-1.31-6.71-3.89-10.03-2.58-3.31-5.62-7.7-7.56-9.21s-4.54-4.54-4.54-4.54c0,0-1.42-2.25-2.16-.92,0,0-2.75,15.61.86,22.09,3.61,6.48,5.59,6.7,10.59,8.86,0,0,4.54.65,5.19,4.75s1.08,5.4,1.08,10.59.43,19.02.43,21.61.12,3.6-.65,4.11c0,0-1.95-3.24-1.95-4.97s2.09-5.25.43-12.97c-1.66-7.71-9.29-13.18-9.29-13.18,0,0-.65-.22-.65,1.51s-.22,5.4-.86,7.35c-.65,1.94-1.74,6.1-.43,9.51,1.3,3.41,5.62,6.48,7.13,8,1.51,1.51,5.01,5.93,5.26,8,.25,2.07.57,9.08.57,9.51s-.09,1.95-1.23-.65c-1.14-2.59-6.33-14.26-10.87-16.64-4.54-2.38-7.78-3.89-17.07-3.67,0,0-7.67-.21-8.86-.22-1.19,0-1.06,1.73-.53,1.95s4.64,7.78,5.93,9.08,5.41,7.22,14.26,7.78c0,0,5-.22,8.21-.86,3.21-.64,4.54.22,5.84,2.38s2.64,3.4,3.46,9.08-.22,18.37-1.3,21.61c-1.08,3.24-1.82,5.43-4.32,5.62-2.5.19-3.46-.43-6.7.65-3.24,1.08-6.05,3.03-7.56,2.81-1.51-.22-3.97-.4-6.45-1.94,0,0-2-1.12-5-.86-3,.25-3.59.99-3.59.99,0,0-.3.3.56.3s3.89-.43,6.05.43,4.33,2.65,8.64,2.16c4.31-.49,6.48-2.59,8-2.81,1.51-.22,3.11-.4,4.32.22,0,0,1.52,0-.65.86-2.16.86-3.46,2.16-7.78,3.03-4.32.86-8.27,1.79-11.27,2.19-2.99.4-8.61-.03-11.42,1.05-2.81,1.08-8.21,3.45-9.18,3.56-.97.11-2.59.57-3.14.54,0,0-1.09.82-.43.83.66,0,3.46.03,6.7-1.05,3.24-1.08,5.99-1.76,8.58-1.95,2.59-.18,4.18-.72,5.9-.79,1.72-.07,1.95-.51,1.72-.07-.23.43-.86.86-2.38,1.51-1.51.65-4.54,2.81-6.48,3.89-1.94,1.08-3.46,2.16-6.27,2.81s-4.09.98-4.86.86c-.77-.12-.76.43-.54.65.22.22,4.13,1.16,8.55-.93,4.42-2.09,5.7-3.39,6.79-3.17,1.09.22,1.52.22.87,1.3-.65,1.08-4.11,5.4-6.05,6.92-1.94,1.51-4.11,3.24-4.11,3.24,0,0-.62.78.25.54.87-.25,7.69-4.2,8.15-4.64.46-.44.24-.39.46.43s.22,4.11.22,4.11c0,0,.63,1.3.86-.48.24-1.78.09-4.32.27-5.74.18-1.42,2.33-4.59,3.84-6.1,1.51-1.51,5.6-4.75,8.64-5.62,3.05-.86,5.62-1.3,6.27-1.95.65-.65,1.3-.43.86,0s-3.96,5.42-6.4,6.62c-2.44,1.2-2.37,2.13-4.62,2.68-2.25.55-2.99.76-3.24,1.34-.25.58-.22.85,1.44.03,1.66-.82,2.56-.51,4.18-1.16,1.62-.65,2.59-1.3,3.03-1.3s.22,1.08-1.95,2.81c-2.16,1.73-2.63,2.77-4.54,3.67-1.91.9-3.31,1.68-2.41,1.81.9.13,2.63-1.17,3.06-1.17s.65.05.65.96,1.09,2.06.33,3.25c-.76,1.19-2.32,3.6-3.57,4.44s-1.41,2.01-.38,1.54c1.03-.46,4.62-2.2,5.35-4.79.73-2.58.86-2.57,1.3-4.53.43-1.96.44-1.54,1.09-2.61.64-1.07.8-1.09,1.29-1.72.49-.63,1.34-1.58,1.08-.14-.26,1.45-.38,3.35.07,4.01.46.66,1.45,1.28,1.22-.99-.23-2.28-.6-3.22-.27-4.61s3.45-5.62,4.35-6.92c.9-1.3,4.12-3.67,5.87-5.41,1.75-1.73,4.53-3.64,5.19-4.75.66-1.12,1.3-2.16,1.3-1.73s-.86,3.35-1.84,4.38c-.97,1.03-3.78,5.13-5.08,6.43s-2.59,2.59-3.89,4.75c-1.3,2.16-1.92,4.45-1.5,4.71.42.26.42-.6,1.07-1.69.65-1.08,3.67-4.54,4.65-5.51s3.35-2.77,3.57-3.27c.22-.51.22-.07-.22,1.22-.43,1.3-2.16,7.13-4.97,10.16s-5.25,6.64-7.03,8c-1.78,1.36-2.55,1.95-3.81,2.59s-3.16,1.96-3.42,2.51-.67.91,1.73-.14c2.4-1.04,4.47-.94,6.27-2.38,1.8-1.44,4.75-5.62,4.97-5.84s.37-.03,0,3.03c-.37,3.05-1.3,5.61-2.16,6.69s-3.24,2.6-3.24,2.6c0,0-1.32.74-.43.86.88.12,5.19-1.3,6.48-5.62,1.3-4.32,1.43-6.02,1.69-7.23.26-1.2.48-2.72,1.34-4.01.86-1.3,3.24-5.84,3.67-7.13.43-1.3,1.3-3.47,1.3-2.59s-.43,10.04-.43,12.8-.43,4.49-1.51,7.3c-1.08,2.81-1.51,4.54-1.95,4.97-.43.43-.98,1.53-.6,1.52.38,0,2.54-2.59,2.54-2.59.66-1.09,1.52-2.82,1.74-2.6.22.22.43,3.56.65,4.37s.65,2.19.86,4.75c.22,2.55,0,3.63-.22,4.71-.22,1.08-.22,2.81.65,1.08.86-1.73,1.3-1.3,1.3-3.03v-2.59c0-1.73-.43-3.03.65-1.95s2.16,2.59,2.59,2.59.65-.65-.22-1.51c-.86-.86-2.59-2.16-3.03-4.75-.43-2.59-.86-7.78-.86-9.08s.22-4.54.65-4.11c.43.43,2.81,1.51,3.67,4.97.86,3.46.69,4.14,2.08,6.39,1.38,2.25,2.56,4.75,3.27,4.58.71-.17-.16-.6-1.24-3.41-1.08-2.81-1.96-5.45-2.17-7.15-.21-1.71-.86-3.22-1.94-4.73-1.08-1.51-2.81-2.38-3.24-4.11-.43-1.73-.65-3.24-.65-4.54s0-2.59.86-.86c.86,1.73,1.81,3.33,2.81,4.54,1,1.2,4.25,1.81,4.8,4.18.55,2.37,1.68,2.3,1.46,1.22-.22-1.08-.86-3.46-1.51-4.11s-3.24-1.95-4.54-4.11c-1.3-2.16-2.16-3.46-2.59-5.19-.43-1.73-.43-4.75-.43-6.48s.15-3.97.43-3.03c.28.94.29,2.74.86,4.32s1.95,3.67,3.24,5.4c1.3,1.73,1.95,2.38,3.24,4.11,1.3,1.73,2.16,3.02,3.03,5.4.86,2.38,1.73,4.87,1.94,6.92.22,2.05.9,3.73,1.08,5.4.18,1.67,1.18,2.85,1.73,3.89.55,1.04,2.16,2.59,2.38,2.38.22-.22-.22-1.08-.65-1.95s-1.51-3.12-1.73-4.69c-.22-1.57-1.08-2.44-.86-2.65.22-.22.65-.22,1.08.22s1.95,1.08,2.16.86-.86-.86-1.08-1.95c-.22-1.08-.86-1.3-1.08-1.95-.22-.65-.65-1.08-1.08-1.94-.43-.86-.43-3.03-1.08-4.54-.65-1.51-1.13-2.41-.24-2.18s3.05,1.1,5,2.18c1.94,1.08,3.67,1.95,4.86,4,1.19,2.05,2.7,4.24,4,5.29s3.03,1.3,3.67,1.51c.65.22,1.38-.13-1.3-1.73-2.68-1.6-3.46-3.03-4.11-4.54s-1.73-3.03-1.08-2.81c.65.22,3.19,2.04,3.65,1.78s-.62-.91-1.49-1.78c-.86-.86-4.54-1.95-5.62-2.59-1.08-.65-3.89-1.3-5.19-2.16s-7.12-4.97-7.78-6.48-3.2-4.59-4.09-6.94c-.89-2.35-1.53-3.43-.45-3.21,0,0,.65-.22,1.73.86,1.08,1.08,4.99,3.24,6.49,4.54,1.51,1.3,4.05,4.13,5.18,5.4,1.13,1.27,4.75,4.32,6.27,4.54s3.03.43,3.03,0-2.16-.86-3.46-1.73c-1.3-.86-2.5-1.79-3.65-3.46-1.16-1.67-1.96-2.59-2.18-3.24-.22-.65,1.51.22,3.03.43,1.51.22,4.42,1.49,4.42,1.49,0,0,4.64,2.64,6.48,5s3.79,4.74,4.65,5.17c.86.43,2.16.43,2.81,1.51.65,1.08,1.51,1.51,1.08,2.81-.43,1.3,0,2.59,0,2.59,0,0,.86-1.73.86-2.59s-.78-1.92.65-.22c1.42,1.7,2.59,1.73,3.89,3.03,1.3,1.3,2.81,1.51,1.95.65-.86-.86-4.73-4.4-4.74-5.01-.01-.61-.01-1.48-1.53-2.56-1.51-1.08-3.9-1.51-4.43-2.59-.54-1.08-.97-1.51-.97-1.51,0,0,4.67,1.09,7.56,1.95,2.9.85,3.89.43,5.62.86,1.73.43,4.97,1.08,5.4.65s.65-.22-.65-.65c-1.3-.43-11.29-2.09-12.77-2.99-1.49-.9-5.16-1.98-6.68-3.06-1.51-1.08-2.03-1.95-1.99-2.16s3.09,0,5.13-.43c2.04-.43,5.5-1.3,7.44,0ZM309.52,251.14s6.91-.39,9.29-.43c0,0,.65,1.08,1.51.22.86-.86-1.78,3.26-10.81.22ZM330.7,242.71c-1.51,1.51-1.51,3.24-3.89,3.46-2.38.22-3.24.22-3.24.22l1.95.65s-1.3,2.59-2.81,2.81c-1.51.22-5.84-2.81-5.84-2.81,0,0,6.05-2.59,9.29-4.11,3.24-1.51,5.84-2.81,5.84-2.81,0,0,.22,1.08-1.3,2.59ZM322.71,238.18c2.38-.22,7.56-.43,7.56-.43,0,0-.22.86-1.94,1.73-1.73.86-11.02,4.54-11.02,4.54,0,0,3.03-5.62,5.4-5.84ZM318.82,239.04s2.16-.43,0,1.73c-2.16,2.16-2.46,1.73-2.74,2.81-.29,1.08-3.31,1.95-4.82,3.03-1.51,1.08-3.53,1.99-3.46.75,0,0,4.97-7.45,11.02-8.32ZM324.87,209.22c-1.29,4.24-6.05,5.62-6.05,5.62,0,0,1.73,0,1.95.65s-.86,1.73-4.97,4.97c-4.11,3.24-8.64,2.16-8.64,2.16l3.45-2.16,4.8-1.57s-2.2-.15-2.98-.33c-.78-.18.13-.47,1.43-1.34s8.64-8.21,10.16-9.29c1.51-1.08.86,1.3.86,1.3ZM311.04,210.08c3.25-3.09,6.27-3.67,9.94-4.32s1.95.65,1.95.65c-5.14,1.27-17.29,13.4-17.29,13.4,0,0,2.15-6.64,5.4-9.73ZM312.98,181.77s-2.77,8.71-6.05,11.24c-3.28,2.53-3.46,1.94-3.46,1.94,0,0,2.16-5.4,3.46-7.13,1.3-1.73,3.46-4.75,6.05-6.05ZM307.79,183.07s-4.75,6.25-5.4,8c0,0,.22-6.7,5.4-8ZM280.13,183.5c-1.51-2.81-.22-10.59-.22-10.59,1.19,6.26,7.92,15.34,7.92,15.34,0,0-.79-.43-1.44-.65s-4.75-1.3-6.27-4.11ZM289.24,193.72s-.68-.49-3.49-2.01c-2.81-1.51-4.32-5.19-4.32-5.19,0,0,3.18,1.81,4.97,2.38s2.38,1.08,3.46,2.59c1.08,1.51-.61,2.22-.61,2.22ZM292.45,190.63c-.65-1.51-3.46-6.05-3.67-6.7-.22-.65-.43-2.59-.43-2.59,0,0-1.17,2.03-1.3,1.3s-.43-1.73-2.38-2.99-1.73-6.73-1.73-6.73c9.18,7.17,9.73,13.18,10.37,16.86.65,3.67-.22,2.38-.86.86ZM285.32,215.48s2.64,11.76,3.24,12.75c.6.99-6.34-3.15-3.24-12.75ZM292.23,228.88s-2.01-5.8-2.38-6.7-2.81-10.16-2.81-10.16c0,0,4.78,5.28,5.19,10.37.4,5.09,0,6.48,0,6.48ZM280.78,234.72c3.03,1.3,2.5,6.26,1.95,4.97s-5.4-2.51-5.84-3.24c-.43-.73-2.16-4.32-2.16-4.32,0,0,3.03,1.3,6.05,2.59ZM273,232.13c1.51,1.95,2.25,3.46,2.25,3.46,0,0-7.28-3.71-9.27-3.46,0,0,5.5-1.95,7.02,0ZM262.84,234.93s10.09,4.56,12.75,4.97c2.66.41.86.86.86.86-8.97,1.84-13.62-5.84-13.62-5.84ZM282.51,244.66c-3.12-.12-7.56,1.54-11.67-2.52,0,0,4.97,1.01,6.92.36s2.48-1.51,3.29-.86c.81.65,4.58,3.14,1.46,3.03ZM284.89,240.12c-1.08-.65-1.3-3.46-1.3-3.46,3.37.81,3.67,4.54,3.67,4.54,0,0-1.3-.43-2.38-1.08Z"/>
    <path class="st0" d="M351.8,298.56c.15,0,.05-.06,0,0h0Z"/>
  </g>
  <g>
    <path class="st0" d="M79.79,402.47c-4.75-2.55-8.39-5.98-10.91-10.3-2.52-4.32-3.78-9.08-3.78-14.29,0-5.56,1.43-10.46,4.3-14.68,2.87-4.23,6.79-7.49,11.77-9.78,4.98-2.29,10.57-3.43,16.77-3.43,3.07,0,5.95.28,8.65.83,2.69.55,4.91,1.35,6.65,2.39.46.23.74.42.83.56.09.15.16.59.22,1.35l1.13,10.51c0,.17-.16.29-.48.35-.32.06-.51,0-.56-.17-1.28-4.23-3.42-7.67-6.43-10.34-3.01-2.66-7.01-4-11.99-4-4.4,0-8.39,1.01-11.95,3.04-3.56,2.03-6.37,4.95-8.43,8.78-2.06,3.82-3.08,8.25-3.08,13.29s1.01,9.72,3.04,14.03c2.03,4.32,5.02,7.79,8.99,10.43,3.97,2.64,8.73,3.95,14.29,3.95,4,0,6.79-.77,8.39-2.3,1.59-1.53,2.39-4.3,2.39-8.3,0-3.01-.19-5.11-.57-6.3-.38-1.19-1.19-1.98-2.43-2.39-1.25-.4-3.46-.61-6.65-.61-.35,0-.52-.23-.52-.7,0-.17.04-.33.13-.48.09-.14.19-.22.3-.22,4.63.29,8.37.43,11.21.43s5.62-.09,8.69-.26c.23,0,.36.2.39.61.03.41-.1.61-.39.61-1.39-.06-2.36.13-2.91.56-.55.43-.91,1.32-1.09,2.65-.17,1.33-.26,3.65-.26,6.95,0,2.61.1,4.46.3,5.56.2,1.1.3,1.8.3,2.09,0,.35-.06.58-.17.69-.12.12-.38.23-.78.35-7.18,1.56-13.38,2.35-18.6,2.35-6.43,0-12.02-1.27-16.77-3.82Z"/>
    <path class="st0" d="M183.11,404.73c0,.35-.09.52-.26.52h-11.9c-1.39,0-4.01-2.36-7.86-7.08-3.85-4.72-8.56-11.31-14.12-19.77-1.56.29-3.01.43-4.34.43-.29,0-1.65-.09-4.08-.26v19.64c0,1.8.17,3.1.52,3.91.35.81,1.01,1.36,2,1.65.98.29,2.55.43,4.69.43.17,0,.26.17.26.52s-.09.52-.26.52c-1.85,0-3.27-.03-4.26-.09l-6.17-.09-6,.09c-1.1.06-2.58.09-4.43.09-.12,0-.17-.17-.17-.52s.06-.52.17-.52c2.14,0,3.71-.14,4.69-.43.98-.29,1.67-.85,2.04-1.69.38-.84.56-2.13.56-3.87v-40.23c0-1.74-.17-3.01-.52-3.82-.35-.81-1.01-1.38-2-1.69-.99-.32-2.52-.48-4.61-.48-.17,0-.26-.17-.26-.52s.09-.52.26-.52l4.26.09c2.43.12,4.43.17,6,.17,1.22,0,2.37-.03,3.48-.09,1.1-.06,2.06-.12,2.87-.17,2.14-.17,4.14-.26,6-.26,4.63,0,8.24,1.03,10.82,3.08,2.58,2.06,3.87,4.82,3.87,8.3,0,3.13-.91,5.97-2.74,8.52-1.83,2.55-4.24,4.55-7.26,6,4.87,7.01,8.93,12.48,12.21,16.42,3.27,3.94,6.2,6.79,8.78,8.56,2.58,1.77,5.08,2.65,7.52,2.65.17,0,.26.17.26.52ZM145.66,376.75c4.34,0,7.44-.97,9.3-2.91,1.85-1.94,2.78-4.97,2.78-9.08,0-4.58-.96-7.83-2.87-9.78-1.91-1.94-4.66-2.91-8.25-2.91-2.26,0-3.84.42-4.74,1.26-.9.84-1.35,2.45-1.35,4.82v18.33c1.62.17,3.33.26,5.13.26Z"/>
    <path class="st0" d="M195.41,402.51c-4.2-2.52-7.44-5.94-9.73-10.25-2.29-4.31-3.43-9.02-3.43-14.12,0-5.97,1.51-11.08,4.52-15.34,3.01-4.26,6.88-7.46,11.6-9.6,4.72-2.14,9.54-3.21,14.47-3.21,5.5,0,10.34,1.29,14.51,3.87,4.17,2.58,7.37,5.98,9.6,10.21,2.23,4.23,3.35,8.72,3.35,13.47,0,5.27-1.39,10.11-4.17,14.51-2.78,4.4-6.5,7.88-11.17,10.43-4.66,2.55-9.72,3.82-15.16,3.82s-10.18-1.26-14.38-3.78ZM223.13,401.51c3.04-1.91,5.44-4.71,7.21-8.39,1.77-3.68,2.65-8.07,2.65-13.16,0-5.39-.97-10.2-2.91-14.42-1.94-4.23-4.71-7.53-8.3-9.91-3.59-2.37-7.76-3.56-12.51-3.56-6.2,0-11.04,2.04-14.51,6.13s-5.21,9.72-5.21,16.9c0,5.45.98,10.4,2.96,14.86,1.97,4.46,4.72,7.98,8.25,10.56,3.53,2.58,7.56,3.87,12.08,3.87,3.82,0,7.26-.96,10.3-2.87Z"/>
    <path class="st0" d="M292.29,354.2c-1.3-1.48-3.2-2.22-5.69-2.22-.17,0-.26-.17-.26-.52s.09-.52.26-.52l3.82.09c1.97.12,3.62.17,4.95.17,1.1,0,2.58-.06,4.43-.17l3.65-.09c.12,0,.17.17.17.52s-.06.52-.17.52c-2.32,0-4.05.74-5.21,2.22-1.16,1.48-1.74,3.67-1.74,6.56v24.59c0,6.55-1.88,11.69-5.65,15.42-3.77,3.74-8.81,5.6-15.12,5.6-4.29,0-8.04-.84-11.25-2.52-3.21-1.68-5.72-4.07-7.52-7.17-1.8-3.1-2.69-6.73-2.69-10.91v-27.81c0-1.74-.17-3.01-.52-3.82-.35-.81-1.01-1.38-2-1.69-.99-.32-2.55-.48-4.69-.48-.12,0-.17-.17-.17-.52s.06-.52.17-.52l4.34.09c2.55.12,4.55.17,6,.17,1.62,0,3.71-.06,6.26-.17l4.08-.09c.17,0,.26.17.26.52s-.09.52-.26.52c-2.09,0-3.62.17-4.61.52-.99.35-1.65.94-2,1.78-.35.84-.52,2.13-.52,3.87v24.59c0,6.84,1.51,12.04,4.52,15.6,3.01,3.56,7.27,5.34,12.77,5.34,5.16,0,9.17-1.61,12.04-4.82s4.3-7.69,4.3-13.42v-24.68c0-2.9-.65-5.08-1.96-6.56Z"/>
    <path class="st0" d="M366.98,351.46c0,.35-.09.52-.26.52-2.38,0-4.13.71-5.26,2.13-1.13,1.42-1.7,3.64-1.7,6.65v45.53c0,.17-.14.29-.43.35-.29.06-.49.03-.61-.09l-40.49-48.49-.26-.35v37.8c0,3.01.55,5.21,1.65,6.6,1.1,1.39,2.81,2.08,5.13,2.08.17,0,.26.17.26.52s-.09.52-.26.52c-1.39,0-2.49-.03-3.3-.09l-4.43-.09-4.61.09c-.87.06-2.12.09-3.74.09-.12,0-.17-.17-.17-.52s.06-.52.17-.52c2.49,0,4.3-.7,5.43-2.08,1.13-1.39,1.7-3.59,1.7-6.6v-40.06c-2.38-2.32-4.78-3.48-7.21-3.48-.17,0-.26-.17-.26-.52s.09-.52.26-.52l3.22.09c.69.06,1.68.09,2.95.09l4.08-.09c.46-.06,1.07-.09,1.82-.09.46,0,.8.1,1,.3.2.2.54.65,1,1.35.7,1.04,1.39,2,2.09,2.87l32.85,39.8v-34.5c0-3.01-.52-5.23-1.56-6.65-1.04-1.42-2.75-2.13-5.13-2.13-.12,0-.17-.17-.17-.52s.06-.52.17-.52l3.39.09c1.85.12,3.33.17,4.43.17s2.58-.06,4.43-.17l3.56-.09c.17,0,.26.17.26.52Z"/>
    <path class="st0" d="M389.22,405.33c-.87-.06-1.93-.12-3.17-.17-1.25-.06-2.62-.09-4.13-.09l-6,.09c-1.1.06-2.58.09-4.43.09-.12,0-.17-.17-.17-.52s.06-.52.17-.52c2.14,0,3.71-.14,4.69-.43.98-.29,1.67-.85,2.04-1.69.38-.84.57-2.13.57-3.87v-40.23c0-1.74-.17-3.01-.52-3.82-.35-.81-1.01-1.38-2-1.69-.99-.32-2.55-.48-4.69-.48-.12,0-.17-.17-.17-.52s.06-.52.17-.52l4.34.09c2.55.12,4.55.17,6,.17,2.2,0,4.37-.09,6.52-.26,2.78-.12,4.63-.17,5.56-.17,6.02,0,11.35,1.16,15.99,3.48,4.63,2.32,8.23,5.47,10.78,9.47,2.55,4,3.82,8.49,3.82,13.47,0,5.62-1.32,10.59-3.95,14.9-2.64,4.32-6.2,7.65-10.69,9.99-4.49,2.35-9.4,3.52-14.73,3.52-1.74,0-3.74-.09-6-.26ZM406.21,401.29c3.45-1.94,6.14-4.81,8.08-8.6,1.94-3.79,2.91-8.33,2.91-13.6s-.93-9.6-2.78-13.69c-1.85-4.08-4.47-7.31-7.86-9.69-3.39-2.37-7.31-3.56-11.77-3.56-2.49,0-4.4.15-5.74.43-1.33.29-2.32.86-2.95,1.69-.64.84-.96,2.13-.96,3.87v39.1c0,2.55.62,4.34,1.87,5.39,1.25,1.04,3.69,1.56,7.34,1.56,4.46,0,8.41-.97,11.86-2.91Z"/>
    <path class="st0" d="M470.99,392c.35.03.52.13.52.3-.52,3.77-.78,7.65-.78,11.64,0,.46-.1.8-.3,1-.2.2-.56.3-1.09.3h-36.76c-.12,0-.17-.17-.17-.52s.06-.52.17-.52c2.14,0,3.71-.14,4.69-.43.98-.29,1.65-.85,2-1.69.35-.84.52-2.13.52-3.87v-40.23c0-1.74-.17-3.01-.52-3.82-.35-.81-1.01-1.38-2-1.69-.99-.32-2.55-.48-4.69-.48-.12,0-.17-.17-.17-.52s.06-.52.17-.52h35.28c.52,0,.78.26.78.78l.17,10.86c0,.17-.16.26-.48.26s-.48-.09-.48-.26c-.35-3.13-1.42-5.53-3.21-7.21-1.8-1.68-4.14-2.52-7.04-2.52h-4.78c-2.72,0-4.52.38-5.39,1.13-.87.75-1.3,2.2-1.3,4.34v17.73h9.99c2.9,0,5-.49,6.3-1.48,1.3-.98,1.96-2.58,1.96-4.78,0-.12.17-.17.52-.17s.52.06.52.17l-.09,7.21c0,1.68.03,2.96.09,3.82l.09,4.34c0,.12-.17.17-.52.17s-.52-.06-.52-.17c0-2.55-.67-4.39-2-5.52-1.33-1.13-3.51-1.69-6.52-1.69h-9.82v19.9c0,1.51.17,2.64.52,3.39.35.75.96,1.29,1.82,1.61.87.32,2.2.48,4,.48h6.17c3.07,0,5.62-.97,7.65-2.91,2.03-1.94,3.42-4.68,4.17-8.21,0-.17.17-.25.52-.22Z"/>
    <path class="st0" d="M496.45,405.33c-.87-.06-1.93-.12-3.17-.17-1.25-.06-2.62-.09-4.13-.09l-6,.09c-1.1.06-2.58.09-4.43.09-.12,0-.17-.17-.17-.52s.06-.52.17-.52c2.14,0,3.71-.14,4.69-.43.98-.29,1.67-.85,2.04-1.69.38-.84.57-2.13.57-3.87v-40.23c0-1.74-.17-3.01-.52-3.82-.35-.81-1.01-1.38-2-1.69-.99-.32-2.55-.48-4.69-.48-.12,0-.17-.17-.17-.52s.06-.52.17-.52l4.34.09c2.55.12,4.55.17,6,.17,2.2,0,4.37-.09,6.52-.26,2.78-.12,4.63-.17,5.56-.17,6.02,0,11.35,1.16,15.99,3.48,4.63,2.32,8.23,5.47,10.78,9.47,2.55,4,3.82,8.49,3.82,13.47,0,5.62-1.32,10.59-3.95,14.9-2.64,4.32-6.2,7.65-10.69,9.99-4.49,2.35-9.4,3.52-14.73,3.52-1.74,0-3.74-.09-6-.26ZM513.44,401.29c3.45-1.94,6.14-4.81,8.08-8.6,1.94-3.79,2.91-8.33,2.91-13.6s-.93-9.6-2.78-13.69c-1.85-4.08-4.47-7.31-7.86-9.69-3.39-2.37-7.31-3.56-11.77-3.56-2.49,0-4.4.15-5.74.43-1.33.29-2.32.86-2.95,1.69-.64.84-.96,2.13-.96,3.87v39.1c0,2.55.62,4.34,1.87,5.39,1.25,1.04,3.69,1.56,7.34,1.56,4.46,0,8.41-.97,11.86-2.91Z"/>
  </g>
  <g>
    <path class="st0" d="M341.94,1050.27c1.95,1.3,4.28,2.61,5.71,2.6s4.26.02,4.14-.42c-.02-.08,0-.12.01-.14-.16,0-.6-.03-1.68-.31-2.55-.65-5.58-1.94-7.09-2.59-1.51-.65-1.73-1.3-3.89-1.3h-7.78s-5.37.13-9.38-1.01c-4.02-1.15-6.53-1.75-9.05-2.86s-4.69-1.97-4.9-2.18-.43-.86,1.3-.86,3.65.64,5.45,1.31c1.8.67,5.36,1.28,7.09,1.71,1.73.43,3.03,0,5.19-.43,2.16-.43,3.03-.43,3.89-.86.86-.43.86,0,2.16,0s3.03-.43,1.08-1.08-3.06-.35-5.84.22c-2.77.57-5.4,1.51-8.21.43-2.81-1.08-6.92-3.03-9.51-3.03s-5.84-.22-6.92-1.3c-1.08-1.08-3.63-7.06-3.24-16.64.39-9.58,2.94-12.45,3.95-13.03,1.02-.58,3.38-1.26,7.07-.15s11.45,1.08,16.21-3.67c4.75-4.75,9.73-12.32,9.73-12.32,0,0,1.81-1.58,1.08-2.38-.73-.79-5.73-.09-8.86-.65-3.13-.56-8.43-.65-12.53,1.3s-8.86,4.54-11.67,9.94-4.97,9.29-4.97,9.29c0,0-.86,2.59-.86.86s0-15.13.65-19.67c.65-4.54,1.51-9.73,3.46-10.81,1.94-1.08,2.77-1.38,7.78-1.73,5.01-.35,12.7-5.54,15.56-13.83,0,0,1.95-4.11,2.38-4.97.43-.86,1.77-2.47.22-2.81-1.56-.34-7.8-.14-12.75,1.08-4.95,1.22-8.43,4.11-9.51,6.05-1.08,1.95-3.03,6.92-3.89,9.08-.86,2.16-3.46,7.78-3.46,7.78,0,0-.39,2.84-.86,1.3-.47-1.54.22-23.99.22-23.99,0,0,1.24-5.2,2.59-6.48,1.36-1.28,7.06-1.44,9.26-5.8,2.2-4.36,3.06-8.68,3.93-10.84.86-2.16,1.3-4.53.22-4.42-1.08.1-5.19,2.05-6.92,2.91-1.73.86-5.62,3.46-6.7,6.27-1.08,2.81-1.73,7.35-2.16,9.08-.43,1.73-1.33,6.09-1.95,5.84s-.65-7.56-1.51-10.59c-.86-3.03-1.31-6.71-3.89-10.03-2.58-3.31-5.62-7.7-7.56-9.21s-4.54-4.54-4.54-4.54c0,0-1.42-2.25-2.16-.92,0,0-2.75,15.61.86,22.09,3.61,6.48,5.59,6.7,10.59,8.86,0,0,4.54.65,5.19,4.75s1.08,5.4,1.08,10.59.43,19.02.43,21.61.12,3.6-.65,4.11c0,0-1.95-3.24-1.95-4.97s2.09-5.25.43-12.97c-1.66-7.71-9.29-13.18-9.29-13.18,0,0-.65-.22-.65,1.51s-.22,5.4-.86,7.35c-.65,1.94-1.74,6.1-.43,9.51,1.3,3.41,5.62,6.48,7.13,8,1.51,1.51,5.01,5.93,5.26,8,.25,2.07.57,9.08.57,9.51s-.09,1.95-1.23-.65c-1.14-2.59-6.33-14.26-10.87-16.64-4.54-2.38-7.78-3.89-17.07-3.67,0,0-7.67-.21-8.86-.22-1.19,0-1.06,1.73-.53,1.95s4.64,7.78,5.93,9.08,5.41,7.22,14.26,7.78c0,0,5-.22,8.21-.86,3.21-.64,4.54.22,5.84,2.38s2.64,3.4,3.46,9.08-.22,18.37-1.3,21.61c-1.08,3.24-1.82,5.43-4.32,5.62-2.5.19-3.46-.43-6.7.65-3.24,1.08-6.05,3.03-7.56,2.81-1.51-.22-3.97-.4-6.45-1.94,0,0-2-1.12-5-.86-3,.25-3.59.99-3.59.99,0,0-.3.3.56.3s3.89-.43,6.05.43,4.33,2.65,8.64,2.16c4.31-.49,6.48-2.59,8-2.81,1.51-.22,3.11-.4,4.32.22,0,0,1.52,0-.65.86-2.16.86-3.46,2.16-7.78,3.03-4.32.86-8.27,1.79-11.27,2.19-2.99.4-8.61-.03-11.42,1.05-2.81,1.08-8.21,3.45-9.18,3.56-.97.11-2.59.57-3.14.54,0,0-1.09.82-.43.83.66,0,3.46.03,6.7-1.05,3.24-1.08,5.99-1.76,8.58-1.95,2.59-.18,4.18-.72,5.9-.79,1.72-.07,1.95-.51,1.72-.07-.23.43-.86.86-2.38,1.51-1.51.65-4.54,2.81-6.48,3.89-1.94,1.08-3.46,2.16-6.27,2.81s-4.09.98-4.86.86c-.77-.12-.76.43-.54.65.22.22,4.13,1.16,8.55-.93,4.42-2.09,5.7-3.39,6.79-3.17,1.09.22,1.52.22.87,1.3-.65,1.08-4.11,5.4-6.05,6.92-1.94,1.51-4.11,3.24-4.11,3.24,0,0-.62.78.25.54.87-.25,7.69-4.2,8.15-4.64.46-.44.24-.39.46.43s.22,4.11.22,4.11c0,0,.63,1.3.86-.48.24-1.78.09-4.32.27-5.74.18-1.42,2.33-4.59,3.84-6.1,1.51-1.51,5.6-4.75,8.64-5.62,3.05-.86,5.62-1.3,6.27-1.95.65-.65,1.3-.43.86,0s-3.96,5.42-6.4,6.62c-2.44,1.2-2.37,2.13-4.62,2.68-2.25.55-2.99.76-3.24,1.34-.25.58-.22.85,1.44.03,1.66-.82,2.56-.51,4.18-1.16,1.62-.65,2.59-1.3,3.03-1.3s.22,1.08-1.95,2.81c-2.16,1.73-2.63,2.77-4.54,3.67-1.91.9-3.31,1.68-2.41,1.81.9.13,2.63-1.17,3.06-1.17s.65.05.65.96,1.09,2.06.33,3.25c-.76,1.19-2.32,3.6-3.57,4.44s-1.41,2.01-.38,1.54c1.03-.46,4.62-2.2,5.35-4.79.73-2.58.86-2.57,1.3-4.53.43-1.96.44-1.54,1.09-2.61.64-1.07.8-1.09,1.29-1.72.49-.63,1.34-1.58,1.08-.14-.26,1.45-.38,3.35.07,4.01.46.66,1.45,1.28,1.22-.99-.23-2.28-.6-3.22-.27-4.61s3.45-5.62,4.35-6.92c.9-1.3,4.12-3.67,5.87-5.41,1.75-1.73,4.53-3.64,5.19-4.75.66-1.12,1.3-2.16,1.3-1.73s-.86,3.35-1.84,4.38c-.97,1.03-3.78,5.13-5.08,6.43s-2.59,2.59-3.89,4.75c-1.3,2.16-1.92,4.45-1.5,4.71.42.26.42-.6,1.07-1.69.65-1.08,3.67-4.54,4.65-5.51s3.35-2.77,3.57-3.27c.22-.51.22-.07-.22,1.22-.43,1.3-2.16,7.13-4.97,10.16s-5.25,6.64-7.03,8c-1.78,1.36-2.55,1.95-3.81,2.59s-3.16,1.96-3.42,2.51-.67.91,1.73-.14c2.4-1.04,4.47-.94,6.27-2.38,1.8-1.44,4.75-5.62,4.97-5.84s.37-.03,0,3.03c-.37,3.05-1.3,5.61-2.16,6.69s-3.24,2.6-3.24,2.6c0,0-1.32.74-.43.86.88.12,5.19-1.3,6.48-5.62,1.3-4.32,1.43-6.02,1.69-7.23.26-1.2.48-2.72,1.34-4.01.86-1.3,3.24-5.84,3.67-7.13.43-1.3,1.3-3.47,1.3-2.59s-.43,10.04-.43,12.8-.43,4.49-1.51,7.3c-1.08,2.81-1.51,4.54-1.95,4.97-.43.43-.98,1.53-.6,1.52.38,0,2.54-2.59,2.54-2.59.66-1.09,1.52-2.82,1.74-2.6.22.22.43,3.56.65,4.37s.65,2.19.86,4.75c.22,2.55,0,3.63-.22,4.71-.22,1.08-.22,2.81.65,1.08.86-1.73,1.3-1.3,1.3-3.03v-2.59c0-1.73-.43-3.03.65-1.95s2.16,2.59,2.59,2.59.65-.65-.22-1.51c-.86-.86-2.59-2.16-3.03-4.75-.43-2.59-.86-7.78-.86-9.08s.22-4.54.65-4.11c.43.43,2.81,1.51,3.67,4.97.86,3.46.69,4.14,2.08,6.39,1.38,2.25,2.56,4.75,3.27,4.58.71-.17-.16-.6-1.24-3.41-1.08-2.81-1.96-5.45-2.17-7.15-.21-1.71-.86-3.22-1.94-4.73-1.08-1.51-2.81-2.38-3.24-4.11-.43-1.73-.65-3.24-.65-4.54s0-2.59.86-.86c.86,1.73,1.81,3.33,2.81,4.54,1,1.2,4.25,1.81,4.8,4.18.55,2.37,1.68,2.3,1.46,1.22-.22-1.08-.86-3.46-1.51-4.11s-3.24-1.95-4.54-4.11c-1.3-2.16-2.16-3.46-2.59-5.19-.43-1.73-.43-4.75-.43-6.48s.15-3.97.43-3.03c.28.94.29,2.74.86,4.32s1.95,3.67,3.24,5.4c1.3,1.73,1.95,2.38,3.24,4.11,1.3,1.73,2.16,3.02,3.03,5.4.86,2.38,1.73,4.87,1.94,6.92.22,2.05.9,3.73,1.08,5.4.18,1.67,1.18,2.85,1.73,3.89.55,1.04,2.16,2.59,2.38,2.38.22-.22-.22-1.08-.65-1.95s-1.51-3.12-1.73-4.69c-.22-1.57-1.08-2.44-.86-2.65.22-.22.65-.22,1.08.22s1.95,1.08,2.16.86-.86-.86-1.08-1.95c-.22-1.08-.86-1.3-1.08-1.95-.22-.65-.65-1.08-1.08-1.94-.43-.86-.43-3.03-1.08-4.54-.65-1.51-1.13-2.41-.24-2.18s3.05,1.1,5,2.18c1.94,1.08,3.67,1.95,4.86,4,1.19,2.05,2.7,4.24,4,5.29s3.03,1.3,3.67,1.51c.65.22,1.38-.13-1.3-1.73-2.68-1.6-3.46-3.03-4.11-4.54s-1.73-3.03-1.08-2.81c.65.22,3.19,2.04,3.65,1.78s-.62-.91-1.49-1.78c-.86-.86-4.54-1.95-5.62-2.59-1.08-.65-3.89-1.3-5.19-2.16s-7.12-4.97-7.78-6.48-3.2-4.59-4.09-6.94c-.89-2.35-1.53-3.43-.45-3.21,0,0,.65-.22,1.73.86,1.08,1.08,4.99,3.24,6.49,4.54,1.51,1.3,4.05,4.13,5.18,5.4,1.13,1.27,4.75,4.32,6.27,4.54s3.03.43,3.03,0-2.16-.86-3.46-1.73c-1.3-.86-2.5-1.79-3.65-3.46-1.16-1.67-1.96-2.59-2.18-3.24-.22-.65,1.51.22,3.03.43,1.51.22,4.42,1.49,4.42,1.49,0,0,4.64,2.64,6.48,5s3.79,4.74,4.65,5.17c.86.43,2.16.43,2.81,1.51.65,1.08,1.51,1.51,1.08,2.81-.43,1.3,0,2.59,0,2.59,0,0,.86-1.73.86-2.59s-.78-1.92.65-.22c1.42,1.7,2.59,1.73,3.89,3.03,1.3,1.3,2.81,1.51,1.95.65-.86-.86-4.73-4.4-4.74-5.01-.01-.61-.01-1.48-1.53-2.56-1.51-1.08-3.9-1.51-4.43-2.59-.54-1.08-.97-1.51-.97-1.51,0,0,4.67,1.09,7.56,1.95,2.9.85,3.89.43,5.62.86,1.73.43,4.97,1.08,5.4.65s.65-.22-.65-.65c-1.3-.43-11.29-2.09-12.77-2.99-1.49-.9-5.16-1.98-6.68-3.06-1.51-1.08-2.03-1.95-1.99-2.16s3.09,0,5.13-.43c2.04-.43,5.5-1.3,7.44,0ZM309.52,1004.89s6.91-.39,9.29-.43c0,0,.65,1.08,1.51.22.86-.86-1.78,3.26-10.81.22ZM330.7,996.46c-1.51,1.51-1.51,3.24-3.89,3.46-2.38.22-3.24.22-3.24.22l1.95.65s-1.3,2.59-2.81,2.81c-1.51.22-5.84-2.81-5.84-2.81,0,0,6.05-2.59,9.29-4.11,3.24-1.51,5.84-2.81,5.84-2.81,0,0,.22,1.08-1.3,2.59ZM322.71,991.92c2.38-.22,7.56-.43,7.56-.43,0,0-.22.86-1.94,1.73-1.73.86-11.02,4.54-11.02,4.54,0,0,3.03-5.62,5.4-5.84ZM318.82,992.78s2.16-.43,0,1.73c-2.16,2.16-2.46,1.73-2.74,2.81-.29,1.08-3.31,1.95-4.82,3.03-1.51,1.08-3.53,1.99-3.46.75,0,0,4.97-7.45,11.02-8.32ZM324.87,962.96c-1.29,4.24-6.05,5.62-6.05,5.62,0,0,1.73,0,1.95.65s-.86,1.73-4.97,4.97c-4.11,3.24-8.64,2.16-8.64,2.16l3.45-2.16,4.8-1.57s-2.2-.15-2.98-.33c-.78-.18.13-.47,1.43-1.34s8.64-8.21,10.16-9.29c1.51-1.08.86,1.3.86,1.3ZM311.04,963.82c3.25-3.09,6.27-3.67,9.94-4.32s1.95.65,1.95.65c-5.14,1.27-17.29,13.4-17.29,13.4,0,0,2.15-6.64,5.4-9.73ZM312.98,935.51s-2.77,8.71-6.05,11.24c-3.28,2.53-3.46,1.94-3.46,1.94,0,0,2.16-5.4,3.46-7.13,1.3-1.73,3.46-4.75,6.05-6.05ZM307.79,936.81s-4.75,6.25-5.4,8c0,0,.22-6.7,5.4-8ZM280.13,937.24c-1.51-2.81-.22-10.59-.22-10.59,1.19,6.26,7.92,15.34,7.92,15.34,0,0-.79-.43-1.44-.65s-4.75-1.3-6.27-4.11ZM289.24,947.46s-.68-.49-3.49-2.01c-2.81-1.51-4.32-5.19-4.32-5.19,0,0,3.18,1.81,4.97,2.38s2.38,1.08,3.46,2.59c1.08,1.51-.61,2.22-.61,2.22ZM292.45,944.37c-.65-1.51-3.46-6.05-3.67-6.7-.22-.65-.43-2.59-.43-2.59,0,0-1.17,2.03-1.3,1.3s-.43-1.73-2.38-2.99-1.73-6.73-1.73-6.73c9.18,7.17,9.73,13.18,10.37,16.86.65,3.67-.22,2.38-.86.86ZM285.32,969.23s2.64,11.76,3.24,12.75c.6.99-6.34-3.15-3.24-12.75ZM292.23,982.63s-2.01-5.8-2.38-6.7-2.81-10.16-2.81-10.16c0,0,4.78,5.28,5.19,10.37.4,5.09,0,6.48,0,6.48ZM280.78,988.46c3.03,1.3,2.5,6.26,1.95,4.97s-5.4-2.51-5.84-3.24c-.43-.73-2.16-4.32-2.16-4.32,0,0,3.03,1.3,6.05,2.59ZM273,985.87c1.51,1.95,2.25,3.46,2.25,3.46,0,0-7.28-3.71-9.27-3.46,0,0,5.5-1.95,7.02,0ZM262.84,988.68s10.09,4.56,12.75,4.97c2.66.41.86.86.86.86-8.97,1.84-13.62-5.84-13.62-5.84ZM282.51,998.4c-3.12-.12-7.56,1.54-11.67-2.52,0,0,4.97,1.01,6.92.36s2.48-1.51,3.29-.86c.81.65,4.58,3.14,1.46,3.03ZM284.89,993.86c-1.08-.65-1.3-3.46-1.3-3.46,3.37.81,3.67,4.54,3.67,4.54,0,0-1.3-.43-2.38-1.08Z"/>
    <path class="st0" d="M351.8,1052.3c.15,0,.05-.06,0,0h0Z"/>
  </g>
  <text class="st1" transform="translate(60.85 1158.99)"><tspan x="0" y="0">GROUNDED</tspan></text>
</svg>