<?xml version="1.0" encoding="UTF-8"?>
<svg id="Layer_1" xmlns="http://www.w3.org/2000/svg" version="1.1" viewBox="0 0 595.28 595.28">
  <!-- Generator: Adobe Illustrator 29.8.5, SVG Export Plug-In . SVG Version: 2.1.1 Build 2)  -->
  <defs>
    <style>
      .st0 {
        fill: #59624b;
      }

      .st1 {
        fill: #f2efe7;
      }
    </style>
  </defs>
  <rect class="st1" x="-11.34" y="-11.34" width="617.95" height="617.95"/>
  <g>
    <path class="st0" d="M436.03,448.44c6.08,4.05,13.38,8.16,17.83,8.13s13.29.08,12.92-1.33c-.06-.24-.02-.37.05-.45-.5.03-1.88-.1-5.26-.96-7.98-2.02-17.43-6.07-22.16-8.09-4.73-2.03-5.4-4.05-12.15-4.05h-24.3s-16.77.42-29.31-3.17c-12.54-3.58-20.38-5.48-28.28-8.92-7.89-3.44-14.65-6.14-15.32-6.82s-1.35-2.7,4.05-2.7,11.39,2,17.02,4.1c5.63,2.1,16.73,4,22.13,5.35,5.4,1.35,9.45,0,16.2-1.35,6.75-1.35,9.45-1.35,12.15-2.7,2.7-1.35,2.7,0,6.75,0s9.45-1.35,3.38-3.38-9.57-1.1-18.23.68c-8.66,1.77-16.88,4.73-25.65,1.35-8.78-3.38-21.6-9.45-29.71-9.45s-18.23-.68-21.6-4.05c-3.38-3.38-11.33-22.04-10.13-51.98,1.2-29.94,9.18-38.9,12.35-40.72,3.17-1.82,10.57-3.95,22.08-.47s35.78,3.38,50.63-11.48c14.85-14.85,30.38-38.48,30.38-38.48,0,0,5.66-4.94,3.38-7.43-2.29-2.48-17.9-.27-27.68-2.03-9.78-1.75-26.33-2.03-39.16,4.05-12.83,6.08-27.68,14.18-36.46,31.06-8.78,16.88-15.53,29.03-15.53,29.03,0,0-2.7,8.1-2.7,2.7s0-47.26,2.03-61.44c2.03-14.18,4.73-30.38,10.8-33.76,6.08-3.38,8.66-4.31,24.3-5.4,15.65-1.09,39.68-17.31,48.61-43.21,0,0,6.08-12.83,7.43-15.53,1.35-2.7,5.54-7.7.68-8.78-4.86-1.07-24.38-.45-39.83,3.38-15.46,3.83-26.33,12.83-29.71,18.9-3.38,6.08-9.45,21.6-12.15,28.35-2.7,6.75-10.8,24.3-10.8,24.3,0,0-1.23,8.86-2.7,4.05-1.47-4.81.68-74.94.68-74.94,0,0,3.87-16.25,8.1-20.25,4.24-4.01,22.05-4.5,28.92-18.11,6.87-13.62,9.57-27.12,12.27-33.87s4.05-14.14.68-13.82c-3.38.32-16.2,6.4-21.6,9.1-5.4,2.7-17.55,10.8-20.93,19.58-3.38,8.78-5.4,22.95-6.75,28.35-1.35,5.4-4.16,19.01-6.08,18.23-1.92-.79-2.03-23.63-4.73-33.08s-4.1-20.97-12.15-31.32c-8.05-10.34-17.55-24.04-23.63-28.77-6.08-4.73-14.18-14.18-14.18-14.18,0,0-4.45-7.03-6.74-2.86,0,0-8.58,48.78,2.69,69.02,11.27,20.24,17.46,20.94,33.08,27.68,0,0,14.18,2.03,16.2,14.85s3.38,16.88,3.38,33.08,1.35,59.41,1.35,67.51.38,11.24-2.03,12.83c0,0-6.08-10.13-6.08-15.53s6.53-16.41,1.35-40.51c-5.18-24.1-29.03-41.18-29.03-41.18,0,0-2.03-.68-2.03,4.73s-.68,16.88-2.7,22.95c-2.03,6.08-5.42,19.06-1.35,29.71,4.07,10.64,17.55,20.25,22.28,24.98,4.73,4.73,15.67,18.53,16.44,24.98.78,6.45,1.79,28.35,1.79,29.71s-.28,6.08-3.86-2.03c-3.57-8.1-19.77-44.56-33.95-51.98-14.18-7.43-24.3-12.15-53.33-11.48,0,0-23.95-.66-27.68-.68-3.73-.01-3.31,5.4-1.66,6.08s14.48,24.3,18.53,28.35c4.05,4.05,16.89,22.55,44.56,24.3,0,0,15.62-.7,25.65-2.7,10.03-2.01,14.18.68,18.23,7.43s8.25,10.63,10.8,28.35-.68,57.39-4.05,67.51c-3.38,10.13-5.68,16.97-13.5,17.55-7.82.58-10.8-1.35-20.93,2.03-10.13,3.38-18.9,9.45-23.63,8.78-4.73-.68-12.4-1.24-20.15-6.08,0,0-6.26-3.5-15.63-2.7-9.37.8-11.2,3.1-11.2,3.1,0,0-.95.95,1.75.95s12.15-1.35,18.9,1.35,13.53,8.28,27,6.75c13.48-1.53,20.25-8.1,24.98-8.78,4.73-.68,9.7-1.24,13.49.68,0,0,4.73,0-2.02,2.7-6.75,2.7-10.8,6.75-24.3,9.45s-25.85,5.6-35.2,6.85c-9.35,1.25-26.91-.1-35.68,3.28-8.78,3.38-25.64,10.79-28.69,11.13-3.04.34-8.09,1.78-9.79,1.69,0,0-3.41,2.58-1.35,2.6,2.06.02,10.8.1,20.93-3.28,10.13-3.38,18.71-5.51,26.81-6.08,8.1-.57,13.07-2.23,18.45-2.47,5.37-.23,6.09-1.58,5.37-.23-.72,1.35-2.7,2.7-7.43,4.73-4.73,2.03-14.18,8.78-20.25,12.15-6.08,3.38-10.8,6.75-19.58,8.78s-12.76,3.07-15.18,2.7c-2.41-.37-2.38,1.35-1.7,2.03.68.68,12.89,3.63,26.7-2.91,13.81-6.54,17.8-10.59,21.2-9.92,3.41.68,4.76.68,2.73,4.05-2.03,3.38-12.83,16.88-18.9,21.6-6.08,4.73-12.83,10.13-12.83,10.13,0,0-1.95,2.45.77,1.68,2.72-.78,24.03-13.11,25.47-14.48,1.44-1.37.76-1.22,1.44,1.33s.68,12.83.68,12.83c0,0,1.96,4.08,2.7-1.48.74-5.56.28-13.5.84-17.93.56-4.43,7.27-14.34,11.99-19.06,4.73-4.73,17.48-14.85,27-17.55,9.53-2.7,17.55-4.05,19.58-6.08,2.03-2.03,4.05-1.35,2.7,0s-12.36,16.93-19.99,20.67c-7.63,3.75-7.41,6.64-14.44,8.36-7.02,1.72-9.35,2.37-10.13,4.18-.78,1.81-.7,2.66,4.5.1,5.2-2.56,7.98-1.59,13.06-3.61,5.07-2.03,8.1-4.05,9.45-4.05s.68,3.38-6.08,8.78c-6.75,5.4-8.2,8.65-14.18,11.48-5.98,2.82-10.33,5.26-7.53,5.67,2.8.41,8.2-3.64,9.55-3.64s2.03.15,2.03,3,3.41,6.42,1.03,10.15c-2.38,3.73-7.25,11.23-11.16,13.86s-4.41,6.27-1.19,4.82c3.22-1.45,14.44-6.89,16.72-14.95,2.29-8.06,2.7-8.03,4.05-14.14,1.35-6.11,1.39-4.8,3.39-8.16,2.01-3.36,2.49-3.41,4.03-5.38,1.54-1.98,4.18-4.95,3.38-.42-.8,4.53-1.19,10.47.23,12.54,1.42,2.07,4.53,4.01,3.82-3.1-.72-7.11-1.88-10.07-.84-14.41s10.78-17.54,13.58-21.6c2.8-4.06,12.86-11.47,18.32-16.89s14.14-11.36,16.2-14.85c2.06-3.49,4.05-6.75,4.05-5.4s-2.7,10.47-5.74,13.68c-3.04,3.2-11.82,16.03-15.87,20.08-4.05,4.05-8.1,8.1-12.15,14.85-4.05,6.75-6.01,13.9-4.69,14.72,1.32.81,1.32-1.89,3.34-5.26,2.03-3.38,11.48-14.18,14.52-17.22s10.46-8.65,11.14-10.23c.68-1.58.68-.23-.68,3.82-1.35,4.05-6.74,22.29-15.53,31.73-8.79,9.45-16.41,20.73-21.97,24.98-5.56,4.25-7.96,6.08-11.89,8.1s-9.87,6.11-10.69,7.85-2.09,2.84,5.4-.43c7.49-3.26,13.96-2.93,19.58-7.43,5.62-4.5,14.85-17.55,15.53-18.23s1.16-.08,0,9.45c-1.16,9.53-4.05,17.52-6.75,20.91s-10.13,8.12-10.13,8.12c0,0-4.11,2.31-1.35,2.7,2.76.39,16.2-4.05,20.25-17.55,4.05-13.5,4.45-18.81,5.26-22.57.81-3.76,1.49-8.48,4.19-12.53,2.7-4.05,10.13-18.23,11.48-22.28,1.35-4.05,4.05-10.85,4.05-8.1s-1.35,31.36-1.35,39.98-1.35,14.03-4.73,22.8c-3.38,8.78-4.73,14.18-6.08,15.53-1.35,1.35-3.07,4.77-1.87,4.75,1.2-.02,7.92-8.09,7.92-8.09,2.06-3.41,4.76-8.81,5.43-8.13.68.68,1.35,11.12,2.03,13.66s2.03,6.85,2.7,14.83c.68,7.97,0,11.35-.68,14.72-.68,3.38-.68,8.79,2.03,3.38,2.7-5.4,4.05-4.05,4.05-9.45v-8.1c0-5.4-1.35-9.45,2.03-6.08,3.38,3.38,6.75,8.1,8.1,8.1s2.03-2.03-.68-4.73c-2.7-2.7-8.1-6.75-9.45-14.85-1.35-8.1-2.7-24.3-2.7-28.35s.68-14.18,2.03-12.83c1.35,1.35,8.78,4.73,11.48,15.53s2.17,12.93,6.49,19.97c4.32,7.04,8.01,14.83,10.21,14.31,2.21-.52-.5-1.87-3.87-10.65-3.38-8.78-6.11-17.02-6.77-22.35-.66-5.33-2.68-10.06-6.06-14.78-3.38-4.73-8.78-7.43-10.13-12.83-1.35-5.4-2.03-10.13-2.03-14.18s0-8.1,2.7-2.7c2.7,5.4,5.66,10.42,8.78,14.18,3.11,3.76,13.29,5.66,15.01,13.07,1.72,7.41,5.24,7.18,4.57,3.81-.68-3.38-2.7-10.8-4.73-12.83s-10.13-6.08-14.18-12.83c-4.05-6.75-6.75-10.8-8.1-16.2-1.35-5.4-1.35-14.85-1.35-20.25s.46-12.39,1.35-9.45c.89,2.94.89,8.55,2.7,13.5,1.81,4.95,6.08,11.48,10.13,16.88,4.05,5.4,6.08,7.43,10.13,12.83,4.05,5.4,6.76,9.44,9.45,16.87,2.7,7.43,5.4,15.2,6.07,21.61.68,6.41,2.8,11.66,3.38,16.88.58,5.22,3.68,8.92,5.4,12.15,1.73,3.24,6.75,8.1,7.43,7.43.68-.68-.68-3.38-2.03-6.08s-4.73-9.75-5.4-14.66c-.68-4.92-3.38-7.62-2.7-8.29.68-.68,2.03-.68,3.38.68s6.08,3.38,6.75,2.7-2.7-2.7-3.38-6.08c-.68-3.38-2.7-4.05-3.38-6.08-.68-2.03-2.03-3.38-3.38-6.08-1.35-2.7-1.35-9.45-3.38-14.18s-3.54-7.53-.75-6.81,9.53,3.43,15.61,6.81c6.08,3.38,11.47,6.09,15.19,12.5,3.72,6.41,8.44,13.24,12.49,16.53,4.06,3.29,9.45,4.05,11.48,4.73,2.03.68,4.32-.4-4.05-5.4-8.37-5-10.8-9.45-12.83-14.18s-5.4-9.45-3.38-8.78c2.03.68,9.95,6.38,11.39,5.55s-1.94-2.85-4.64-5.55c-2.7-2.7-14.18-6.08-17.55-8.1-3.38-2.03-12.15-4.05-16.2-6.75s-22.25-15.53-24.29-20.25-10.01-14.35-12.77-21.69c-2.77-7.34-4.79-10.71-1.42-10.04,0,0,2.03-.68,5.4,2.7s15.58,10.11,20.28,14.17c4.7,4.06,12.64,12.91,16.18,16.88,3.54,3.97,14.85,13.5,19.58,14.18,4.73.68,9.45,1.35,9.45,0s-6.75-2.7-10.8-5.4c-4.05-2.7-7.8-5.6-11.42-10.8-3.62-5.21-6.14-8.1-6.81-10.13-.68-2.03,4.73.68,9.45,1.35,4.73.68,13.82,4.66,13.82,4.66,0,0,14.51,8.24,20.26,15.63,5.75,7.39,11.83,14.81,14.53,16.16,2.7,1.35,6.75,1.35,8.78,4.73,2.03,3.38,4.73,4.73,3.38,8.78-1.35,4.05,0,8.1,0,8.1,0,0,2.7-5.4,2.7-8.1s-2.42-5.99,2.03-.68c4.45,5.32,8.1,5.4,12.15,9.45,4.05,4.05,8.78,4.73,6.08,2.03-2.7-2.7-14.77-13.73-14.81-15.64-.04-1.91-.04-4.61-4.77-7.99-4.73-3.38-12.18-4.73-13.85-8.1-1.67-3.38-3.03-4.73-3.03-4.73,0,0,14.58,3.41,23.63,6.08,9.05,2.67,12.15,1.35,17.55,2.7,5.4,1.35,15.53,3.38,16.88,2.03s2.03-.68-2.03-2.03c-4.05-1.35-35.26-6.53-39.91-9.34-4.65-2.81-16.13-6.19-20.85-9.56-4.73-3.38-6.35-6.08-6.21-6.75s9.67-.01,16.04-1.36c6.37-1.35,17.18-4.05,23.25,0ZM334.77,306.67s21.6-1.21,29.03-1.35c0,0,2.03,3.38,4.73.68,2.7-2.7-5.57,10.18-33.76.68ZM400.93,280.34c-4.73,4.73-4.73,10.13-12.15,10.8-7.43.68-10.13.68-10.13.68l6.08,2.03s-4.05,8.1-8.78,8.78c-4.73.68-18.23-8.78-18.23-8.78,0,0,18.9-8.1,29.03-12.83,10.13-4.73,18.23-8.78,18.23-8.78,0,0,.68,3.38-4.05,8.1ZM375.95,266.16c7.43-.68,23.63-1.35,23.63-1.35,0,0-.68,2.7-6.08,5.4-5.4,2.7-34.43,14.18-34.43,14.18,0,0,9.45-17.55,16.88-18.23ZM363.8,268.86s6.75-1.35,0,5.4c-6.75,6.75-7.67,5.4-8.56,8.78-.89,3.38-10.34,6.08-15.07,9.45-4.73,3.38-11.03,6.23-10.8,2.35,0,0,15.53-23.28,34.43-25.98ZM382.7,175.7c-4.04,13.25-18.9,17.55-18.9,17.55,0,0,5.4,0,6.08,2.03s-2.7,5.4-15.53,15.53c-12.83,10.13-27,6.75-27,6.75l10.79-6.75,15-4.92s-6.88-.48-9.31-1.03c-2.43-.55.4-1.48,4.45-4.18s27-25.65,31.73-29.03c4.73-3.38,2.7,4.05,2.7,4.05ZM339.49,178.4c10.16-9.65,19.58-11.48,31.06-13.5,11.48-2.03,6.08,2.03,6.08,2.03-16.07,3.96-54.01,41.86-54.01,41.86,0,0,6.72-20.73,16.88-30.38ZM345.57,89.96s-8.65,27.2-18.9,35.11c-10.26,7.9-10.8,6.08-10.8,6.08,0,0,6.75-16.88,10.8-22.28,4.05-5.4,10.8-14.85,18.9-18.9ZM329.36,94.01s-14.85,19.53-16.88,24.98c0,0,.68-20.93,16.88-24.98ZM242.95,95.36c-4.73-8.78-.68-33.08-.68-33.08,3.7,19.56,24.74,47.93,24.74,47.93,0,0-2.46-1.35-4.49-2.03s-14.85-4.05-19.58-12.83ZM271.41,127.28s-2.13-1.54-10.91-6.26-13.5-16.2-13.5-16.2c0,0,9.93,5.66,15.53,7.43,5.6,1.77,7.43,3.38,10.8,8.1,3.38,4.73-1.92,6.94-1.92,6.94ZM281.43,117.64c-2.03-4.73-10.8-18.9-11.48-20.93-.68-2.03-1.35-8.1-1.35-8.1,0,0-3.66,6.35-4.05,4.05s-1.35-5.4-7.43-9.34c-6.08-3.94-5.4-21.04-5.4-21.04,28.67,22.4,30.38,41.18,32.41,52.66,2.03,11.48-.68,7.43-2.7,2.7ZM259.15,195.28s8.25,36.73,10.13,39.83c1.87,3.1-19.8-9.84-10.13-39.83ZM280.76,237.13s-6.28-18.11-7.43-20.93-8.78-31.73-8.78-31.73c0,0,14.94,16.51,16.2,32.41,1.26,15.9,0,20.25,0,20.25ZM244.97,255.36c9.45,4.05,7.82,19.57,6.08,15.53-1.74-4.04-16.88-7.85-18.23-10.13-1.35-2.27-6.75-13.5-6.75-13.5,0,0,9.45,4.05,18.9,8.1ZM220.67,247.26c4.73,6.08,7.04,10.8,7.04,10.8,0,0-22.76-11.58-28.96-10.8,0,0,17.2-6.08,21.92,0ZM188.94,256.04s31.53,14.24,39.83,15.53c8.3,1.29,2.7,2.7,2.7,2.7-28.02,5.74-42.53-18.23-42.53-18.23ZM250.38,286.42c-9.74-.37-23.61,4.8-36.46-7.87,0,0,15.53,3.14,21.6,1.12,6.08-2.03,7.75-4.73,10.29-2.7,2.54,2.03,14.3,9.82,4.56,9.45ZM257.8,272.24c-3.38-2.03-4.05-10.8-4.05-10.8,10.53,2.54,11.48,14.18,11.48,14.18,0,0-4.05-1.35-7.43-3.38Z"/>
    <path class="st0" d="M466.83,454.8c.48-.02.16-.19,0,0h0Z"/>
  </g>
</svg>