<svg xmlns="http://www.w3.org/2000/svg" viewBox="255 165 105 140">
  <path fill="#59624b" d="M341.94,296.53c1.95,1.3,4.28,2.61,5.71,2.6s4.26.02,4.14-.42c-.02-.08,0-.12.01-.14-.16,0-.6-.03-1.68-.31-2.55-.65-5.58-1.94-7.09-2.59s-1.73-1.3-3.89-1.3h-7.78s-5.37.13-9.38-1.01c-4.02-1.15-6.53-1.75-9.05-2.86s-4.69-1.97-4.9-2.18-.43-.86,1.3-.86,3.65.64,5.45,1.31c1.8.67,5.36,1.28,7.09,1.71s3.03,0,5.19-.43,3.03-.43,3.89-.86c.86-.43.86,0,2.16,0s3.03-.43,1.08-1.08-3.06-.35-5.84.22c-2.77.57-5.4,1.51-8.21.43-2.81-1.08-6.92-3.03-9.51-3.03s-5.84-.22-6.92-1.3c-1.08-1.08-3.63-7.06-3.24-16.64.39-9.58,2.94-12.45,3.95-13.03,1.02-.58,3.38-1.26,7.07-.15s11.45,1.08,16.21-3.67c4.75-4.75,9.73-12.32,9.73-12.32,0,0,1.81-1.58,1.08-2.38-.73-.79-5.73-.09-8.86-.65-3.13-.56-8.43-.65-12.53,1.3-4.11,1.95-8.86,4.54-11.67,9.94-2.81,5.4-4.97,9.29-4.97,9.29,0,0-.86,2.59-.86.86s0-15.13.65-19.67,1.51-9.73,3.46-10.81c1.94-1.08,2.77-1.38,7.78-1.73,5.01-.35,12.7-5.54,15.56-13.83,0,0,1.95-4.11,2.38-4.97s1.77-2.47.22-2.81c-1.56-.34-7.8-.14-12.75,1.08s-8.43,4.11-9.51,6.05c-1.08,1.95-3.03,6.92-3.89,9.08-.86,2.16-3.46,7.78-3.46,7.78,0,0-.39,2.84-.86,1.3-.47-1.54.22-23.99.22-23.99,0,0,1.24-5.2,2.59-6.48,1.36-1.28,7.06-1.44,9.26-5.8s3.06-8.68,3.93-10.84c.86-2.16,1.3-4.53.22-4.42-1.08.1-5.19,2.05-6.92,2.91s-5.62,3.46-6.7,6.27-1.73,7.35-2.16,9.08-1.33,6.09-1.95,5.84-.65-7.56-1.51-10.59c-.86-3.03-1.31-6.71-3.89-10.03-2.58-3.31-5.62-7.7-7.56-9.21s-4.54-4.54-4.54-4.54c0,0-1.42-2.25-2.16-.92,0,0-2.75,15.61.86,22.09s5.59,6.7,10.59,8.86c0,0,4.54.65,5.19,4.75s1.08,5.4,1.08,10.59.43,19.02.43,21.61.12,3.6-.65,4.11c0,0-1.95-3.24-1.95-4.97s2.09-5.25.43-12.97c-1.66-7.71-9.29-13.18-9.29-13.18,0,0-.65-.22-.65,1.51s-.22,5.4-.86,7.35c-.65,1.94-1.74,6.1-.43,9.51,1.3,3.41,5.62,6.48,7.13,8,1.51,1.51,5.01,5.93,5.26,8s.57,9.08.57,9.51-.09,1.95-1.23-.65c-1.14-2.59-6.33-14.26-10.87-16.64s-7.78-3.89-17.07-3.67c0,0-7.67-.21-8.86-.22-1.19,0-1.06,1.73-.53,1.95s4.64,7.78,5.93,9.08,5.41,7.22,14.26,7.78c0,0,5-.22,8.21-.86s4.54.22,5.84,2.38,2.64,3.4,3.46,9.08-.22,18.37-1.3,21.61-1.82,5.43-4.32,5.62-3.46-.43-6.7.65c-3.24,1.08-6.05,3.03-7.56,2.81s-3.97-.4-6.45-1.94c0,0-2-1.12-5-.86-3,.25-3.59.99-3.59.99,0,0-.3.3.56.3s3.89-.43,6.05.43,4.33,2.65,8.64,2.16c4.31-.49,6.48-2.59,8-2.81,1.51-.22,3.11-.4,4.32.22,0,0,1.52,0-.65.86-2.16.86-3.46,2.16-7.78,3.03-4.32.86-8.27,1.79-11.27,2.19-2.99.4-8.61-.03-11.42,1.05-2.81,1.08-8.21,3.45-9.18,3.56-.97.11-2.59.57-3.14.54,0,0-1.09.82-.43.83.66,0,3.46.03,6.7-1.05,3.24-1.08,5.99-1.76,8.58-1.95,2.59-.18,4.18-.72,5.9-.79s1.95-.51,1.72-.07c-.23.43-.86.86-2.38,1.51-1.51.65-4.54,2.81-6.48,3.89-1.94,1.08-3.46,2.16-6.27,2.81s-4.09.98-4.86.86c-.77-.12-.76.43-.54.65s4.13,1.16,8.55-.93c4.42-2.09,5.7-3.39,6.79-3.17s1.52.22.87,1.3-4.11,5.4-6.05,6.92c-1.94,1.51-4.11,3.24-4.11,3.24,0,0-.62.78.25.54.87-.25,7.69-4.2,8.15-4.64.46-.44.24-.39.46.43s.22,4.11.22,4.11c0,0,.63,1.3.86-.48.24-1.78.09-4.32.27-5.74.18-1.42,2.33-4.59,3.84-6.1s5.6-4.75,8.64-5.62c3.05-.86,5.62-1.3,6.27-1.95.65-.65,1.3-.43.86,0s-3.96,5.42-6.4,6.62c-2.44,1.2-2.37,2.13-4.62,2.68s-2.99.76-3.24,1.34-.22.85,1.44.03,2.56-.51,4.18-1.16,2.59-1.3,3.03-1.3.22,1.08-1.95,2.81c-2.16,1.73-2.63,2.77-4.54,3.67-1.91.9-3.31,1.68-2.41,1.81s2.63-1.17,3.06-1.17.65.05.65.96,1.09,2.06.33,3.25-2.32,3.6-3.57,4.44-1.41,2.01-.38,1.54c1.03-.46,4.62-2.2,5.35-4.79.73-2.58.86-2.57,1.3-4.53.43-1.96.44-1.54,1.09-2.61.64-1.07.8-1.09,1.29-1.72.49-.63,1.34-1.58,1.08-.14-.26,1.45-.38,3.35.07,4.01.46.66,1.45,1.28,1.22-.99-.23-2.28-.6-3.22-.27-4.61s3.45-5.62,4.35-6.92c.9-1.3,4.12-3.67,5.87-5.41,1.75-1.73,4.53-3.64,5.19-4.75.66-1.12,1.3-2.16,1.3-1.73s-.86,3.35-1.84,4.38c-.97,1.03-3.78,5.13-5.08,6.43s-2.59,2.59-3.89,4.75c-1.3,2.16-1.92,4.45-1.5,4.71.42.26.42-.6,1.07-1.69.65-1.08,3.67-4.54,4.65-5.51s3.35-2.77,3.57-3.27c.22-.51.22-.07-.22,1.22-.43,1.3-2.16,7.13-4.97,10.16s-5.25,6.64-7.03,8-2.55,1.95-3.81,2.59-3.16,1.96-3.42,2.51-.67.91,1.73-.14c2.4-1.04,4.47-.94,6.27-2.38s4.75-5.62,4.97-5.84.37-.03,0,3.03c-.37,3.05-1.3,5.61-2.16,6.69s-3.24,2.6-3.24,2.6c0,0-1.32.74-.43.86.88.12,5.19-1.3,6.48-5.62,1.3-4.32,1.43-6.02,1.69-7.23.26-1.2.48-2.72,1.34-4.01.86-1.3,3.24-5.84,3.67-7.13.43-1.3,1.3-3.47,1.3-2.59s-.43,10.04-.43,12.8-.43,4.49-1.51,7.3c-1.08,2.81-1.51,4.54-1.95,4.97-.43.43-.98,1.53-.6,1.52.38,0,2.54-2.59,2.54-2.59.66-1.09,1.52-2.82,1.74-2.6s.43,3.56.65,4.37.65,2.19.86,4.75c.22,2.55,0,3.63-.22,4.71s-.22,2.81.65,1.08c.86-1.73,1.3-1.3,1.3-3.03v-2.59c0-1.73-.43-3.03.65-1.95s2.16,2.59,2.59,2.59.65-.65-.22-1.51c-.86-.86-2.59-2.16-3.03-4.75-.43-2.59-.86-7.78-.86-9.08s.22-4.54.65-4.11c.43.43,2.81,1.51,3.67,4.97.86,3.46.69,4.14,2.08,6.39,1.38,2.25,2.56,4.75,3.27,4.58s-.16-.6-1.24-3.41-1.96-5.45-2.17-7.15c-.21-1.71-.86-3.22-1.94-4.73-1.08-1.51-2.81-2.38-3.24-4.11-.43-1.73-.65-3.24-.65-4.54s0-2.59.86-.86,1.81,3.33,2.81,4.54c1,1.2,4.25,1.81,4.8,4.18s1.68,2.3,1.46,1.22-.86-3.46-1.51-4.11-3.24-1.95-4.54-4.11c-1.3-2.16-2.16-3.46-2.59-5.19s-.43-4.75-.43-6.48.15-3.97.43-3.03.29,2.74.86,4.32,1.95,3.67,3.24,5.4c1.3,1.73,1.95,2.38,3.24,4.11,1.3,1.73,2.16,3.02,3.03,5.4.86,2.38,1.73,4.87,1.94,6.92.22,2.05.9,3.73,1.08,5.4.18,1.67,1.18,2.85,1.73,3.89.55,1.04,2.16,2.59,2.38,2.38.22-.22-.22-1.08-.65-1.95s-1.51-3.12-1.73-4.69-1.08-2.44-.86-2.65c.22-.22.65-.22,1.08.22s1.95,1.08,2.16.86-.86-.86-1.08-1.95c-.22-1.08-.86-1.3-1.08-1.95-.22-.65-.65-1.08-1.08-1.94-.43-.86-.43-3.03-1.08-4.54s-1.13-2.41-.24-2.18,3.05,1.1,5,2.18c1.94,1.08,3.67,1.95,4.86,4,1.19,2.05,2.7,4.24,4,5.29s3.03,1.3,3.67,1.51c.65.22,1.38-.13-1.3-1.73s-3.46-3.03-4.11-4.54-1.73-3.03-1.08-2.81c.65.22,3.19,2.04,3.65,1.78s-.62-.91-1.49-1.78-4.54-1.95-5.62-2.59c-1.08-.65-3.89-1.3-5.19-2.16s-7.12-4.97-7.78-6.48-3.2-4.59-4.09-6.94c-.89-2.35-1.53-3.43-.45-3.21,0,0,.65-.22,1.73.86,1.08,1.08,4.99,3.24,6.49,4.54,1.51,1.3,4.05,4.13,5.18,5.4s4.75,4.32,6.27,4.54,3.03.43,3.03,0-2.16-.86-3.46-1.73c-1.3-.86-2.5-1.79-3.65-3.46-1.16-1.67-1.96-2.59-2.18-3.24s1.51.22,3.03.43c1.51.22,4.42,1.49,4.42,1.49,0,0,4.64,2.64,6.48,5s3.79,4.74,4.65,5.17c.86.43,2.16.43,2.81,1.51.65,1.08,1.51,1.51,1.08,2.81-.43,1.3,0,2.59,0,2.59,0,0,.86-1.73.86-2.59s-.78-1.92.65-.22c1.42,1.7,2.59,1.73,3.89,3.03,1.3,1.3,2.81,1.51,1.95.65-.86-.86-4.73-4.4-4.74-5.01-.01-.61-.01-1.48-1.53-2.56-1.51-1.08-3.9-1.51-4.43-2.59-.54-1.08-.97-1.51-.97-1.51,0,0,4.67,1.09,7.56,1.95,2.9.85,3.89.43,5.62.86,1.73.43,4.97,1.08,5.4.65s.65-.22-.65-.65-11.29-2.09-12.77-2.99c-1.49-.9-5.16-1.98-6.68-3.06-1.51-1.08-2.03-1.95-1.99-2.16s3.09,0,5.13-.43,5.5-1.3,7.44,0l-.04.05ZM309.52,251.14s6.91-.39,9.29-.43c0,0,.65,1.08,1.51.22.86-.86-1.78,3.26-10.81.22h0ZM330.7,242.71c-1.51,1.51-1.51,3.24-3.89,3.46s-3.24.22-3.24.22l1.95.65s-1.3,2.59-2.81,2.81-5.84-2.81-5.84-2.81c0,0,6.05-2.59,9.29-4.11,3.24-1.51,5.84-2.81,5.84-2.81,0,0,.22,1.08-1.3,2.59h0ZM322.71,238.18c2.38-.22,7.56-.43,7.56-.43,0,0-.22.86-1.94,1.73-1.73.86-11.02,4.54-11.02,4.54,0,0,3.03-5.62,5.4-5.84ZM318.82,239.04s2.16-.43,0,1.73c-2.16,2.16-2.46,1.73-2.74,2.81-.29,1.08-3.31,1.95-4.82,3.03s-3.53,1.99-3.46.75c0,0,4.97-7.45,11.02-8.32h0ZM324.87,209.22c-1.29,4.24-6.05,5.62-6.05,5.62,0,0,1.73,0,1.95.65s-.86,1.73-4.97,4.97c-4.11,3.24-8.64,2.16-8.64,2.16l3.45-2.16,4.8-1.57s-2.2-.15-2.98-.33c-.78-.18.13-.47,1.43-1.34s8.64-8.21,10.16-9.29c1.51-1.08.86,1.3.86,1.3h0ZM311.04,210.08c3.25-3.09,6.27-3.67,9.94-4.32s1.95.65,1.95.65c-5.14,1.27-17.29,13.4-17.29,13.4,0,0,2.15-6.64,5.4-9.73h0ZM312.98,181.77s-2.77,8.71-6.05,11.24-3.46,1.94-3.46,1.94c0,0,2.16-5.4,3.46-7.13,1.3-1.73,3.46-4.75,6.05-6.05ZM307.79,183.07s-4.75,6.25-5.4,8c0,0,.22-6.7,5.4-8ZM280.13,183.5c-1.51-2.81-.22-10.59-.22-10.59,1.19,6.26,7.92,15.34,7.92,15.34,0,0-.79-.43-1.44-.65s-4.75-1.3-6.27-4.11h0ZM289.24,193.72s-.68-.49-3.49-2.01c-2.81-1.51-4.32-5.19-4.32-5.19,0,0,3.18,1.81,4.97,2.38s2.38,1.08,3.46,2.59-.61,2.22-.61,2.22h-.01ZM292.45,190.63c-.65-1.51-3.46-6.05-3.67-6.7-.22-.65-.43-2.59-.43-2.59,0,0-1.17,2.03-1.3,1.3s-.43-1.73-2.38-2.99-1.73-6.73-1.73-6.73c9.18,7.17,9.73,13.18,10.37,16.86.65,3.67-.22,2.38-.86.86h0ZM285.32,215.48s2.64,11.76,3.24,12.75c.6.99-6.34-3.15-3.24-12.75ZM292.23,228.88s-2.01-5.8-2.38-6.7-2.81-10.16-2.81-10.16c0,0,4.78,5.28,5.19,10.37.4,5.09,0,6.48,0,6.48h0ZM280.78,234.72c3.03,1.3,2.5,6.26,1.95,4.97s-5.4-2.51-5.84-3.24c-.43-.73-2.16-4.32-2.16-4.32,0,0,3.03,1.3,6.05,2.59h0ZM273,232.13c1.51,1.95,2.25,3.46,2.25,3.46,0,0-7.28-3.71-9.27-3.46,0,0,5.5-1.95,7.02,0ZM262.84,234.93s10.09,4.56,12.75,4.97.86.86.86.86c-8.97,1.84-13.62-5.84-13.62-5.84h.01ZM282.51,244.66c-3.12-.12-7.56,1.54-11.67-2.52,0,0,4.97,1.01,6.92.36s2.48-1.51,3.29-.86,4.58,3.14,1.46,3.03h0ZM284.89,240.12c-1.08-.65-1.3-3.46-1.3-3.46,3.37.81,3.67,4.54,3.67,4.54,0,0-1.3-.43-2.38-1.08h0Z"/>
  <path fill="#59624b" d="M351.8,298.56c.15,0,.05-.06,0,0h0Z"/>
</svg>
